<?xml version="1.0" standalone="no"?>
<!DOCTYPE svg PUBLIC "-//W3C//DTD SVG 20010904//EN"
 "http://www.w3.org/TR/2001/REC-SVG-20010904/DTD/svg10.dtd">
<svg version="1.0" xmlns="http://www.w3.org/2000/svg"
 width="1000.000000pt" height="1000.000000pt" viewBox="0 0 1000.000000 1000.000000"
 preserveAspectRatio="xMidYMid meet">
<metadata>
Created by potrace 1.14, written by Peter Selinger 2001-2017
</metadata>
<g transform="translate(0.000000,1000.000000) scale(0.100000,-0.100000)"
fill="#000000" stroke="none">
<path d="M1970 6495 l0 -216 128 3 127 3 3 213 2 212 -130 0 -130 0 0 -215z"/>
<path d="M2350 4990 l0 -1720 125 0 125 0 0 215 0 215 60 0 60 0 0 -215 0
-215 125 0 125 0 0 215 0 215 60 0 60 0 0 -215 0 -215 130 0 130 0 0 215 0
215 -125 0 -125 0 0 540 0 540 125 0 125 0 0 215 0 215 -125 0 -125 0 0 535 0
535 125 0 125 0 0 215 0 215 -130 0 -130 0 0 -210 0 -210 -60 0 -60 0 0 210 0
210 -125 0 -125 0 0 -210 0 -210 -60 0 -60 0 0 210 0 210 -125 0 -125 0 0
-1720z"/>
<path d="M3470 6495 l0 -215 125 0 125 0 0 215 0 215 -125 0 -125 0 0 -215z"/>
<path d="M3840 6495 l0 -216 128 3 127 3 3 213 2 212 -130 0 -130 0 0 -215z"/>
<path d="M4220 6175 l0 -535 -250 0 -250 0 0 -215 0 -215 -125 0 -125 0 0
-215 0 -215 125 0 125 0 0 -110 0 -110 375 0 375 0 0 540 0 540 250 0 250 0 0
535 0 535 -375 0 -375 0 0 -535z"/>
<path d="M4967 5424 c-4 -4 -7 -103 -7 -221 l0 -213 125 0 125 0 0 -430 0
-430 250 0 250 0 0 -215 0 -215 65 0 65 0 0 -215 0 -215 125 0 125 0 0 215 0
215 125 0 125 0 0 215 0 215 185 0 185 0 0 -215 0 -215 125 0 125 0 0 -215 0
-215 130 0 130 0 0 215 0 215 125 0 125 0 0 215 0 215 250 0 250 0 0 430 0
430 125 0 125 0 -2 218 -3 217 -125 0 -125 0 -3 -217 -2 -218 -60 0 -60 0 0
220 0 220 -125 0 -125 0 0 -220 0 -220 -60 0 -60 0 -2 218 -3 217 -125 0 -125
0 -3 -862 -2 -863 -120 0 -120 0 0 645 0 645 -65 0 -65 0 0 220 0 220 -125 0
-125 0 0 -220 0 -220 -60 0 -60 0 -2 218 -3 217 -122 3 -123 3 0 -651 0 -650
-65 0 -65 0 0 -215 0 -215 -60 0 -60 0 -2 863 -3 862 -125 0 -125 0 -3 -217
-2 -218 -60 0 -60 0 0 220 0 220 -125 0 -125 0 0 -220 0 -220 -60 0 -60 0 -2
218 -3 217 -121 3 c-66 1 -123 -1 -127 -4z"/>
<path d="M1970 3485 l0 -215 130 0 130 0 0 215 0 215 -130 0 -130 0 0 -215z"/>
<path d="M3470 3485 l0 -215 125 0 125 0 0 215 0 215 -125 0 -125 0 0 -215z"/>
</g>
</svg>
