<?xml version="1.0" standalone="no"?>
<!DOCTYPE svg PUBLIC "-//W3C//DTD SVG 20010904//EN"
 "http://www.w3.org/TR/2001/REC-SVG-20010904/DTD/svg10.dtd">
<svg version="1.0" xmlns="http://www.w3.org/2000/svg"
 width="700.000000pt" height="700.000000pt" viewBox="0 0 700.000000 700.000000"
 preserveAspectRatio="xMidYMid meet">
<metadata>
Created by potrace 1.14, written by Peter Selinger 2001-2017
</metadata>
<g transform="translate(0.000000,700.000000) scale(0.100000,-0.100000)"
fill="#000000" stroke="none">
<path d="M1700 5505 l0 -285 150 0 150 0 0 285 0 285 -150 0 -150 0 0 -285z"/>
<path d="M2150 3500 l0 -2290 150 0 150 0 0 285 0 285 75 0 75 0 0 -285 0
-285 150 0 150 0 0 285 0 285 75 0 75 0 0 -285 0 -285 150 0 150 0 0 285 0
285 -150 0 -150 0 0 720 0 720 150 0 150 0 0 285 0 285 -150 0 -150 0 0 715 0
715 150 0 150 0 0 285 0 285 -150 0 -150 0 0 -285 0 -285 -75 0 -75 0 0 285 0
285 -150 0 -150 0 0 -285 0 -285 -75 0 -75 0 0 285 0 285 -150 0 -150 0 0
-2290z"/>
<path d="M3500 5505 l0 -285 150 0 150 0 0 285 0 285 -150 0 -150 0 0 -285z"/>
<path d="M3950 5505 l0 -285 150 0 150 0 0 285 0 285 -150 0 -150 0 0 -285z"/>
<path d="M4400 5075 l0 -715 -300 0 -300 0 0 -285 0 -285 -150 0 -150 0 0
-285 0 -284 148 -3 147 -3 3 -147 3 -148 449 0 450 0 0 720 0 720 300 0 300 0
0 715 0 715 -450 0 -450 0 0 -715z"/>
<path d="M1700 1495 l0 -285 150 0 150 0 0 285 0 285 -150 0 -150 0 0 -285z"/>
<path d="M3500 1495 l0 -285 150 0 150 0 0 285 0 285 -150 0 -150 0 0 -285z"/>
</g>
</svg>
