<?xml version="1.0" encoding="UTF-8"?>
<svg id="Layer_2" data-name="Layer 2" xmlns="http://www.w3.org/2000/svg" viewBox="0 0 471.11 667.71">
  <g id="Ebene_1" data-name="Ebene 1">
    <path d="m358.34,505.23h75.67v-132.06h-19.29v-64.55h-37.84v64.55h-56.38v132.06h37.84Zm112.77-132.06v-64.55h-37.09v64.55h37.09Zm-188.44,132.06v65.29h37.84v-65.29h-37.84Zm-169.89,0h37.84v-132.06h-56.38v-64.55h-37.84v64.55h-19.29v132.06h75.67ZM0,373.17h37.09v-64.55H0v64.55ZM282.66,0h-37.09v505.23h37.09V0Zm-56.38,0h-37.84v505.23h37.84V0Zm-37.84,667.71h94.22v-162.48h-94.22v162.48Zm-37.84-162.48v65.29h37.84v-65.29h-37.84Z" style="stroke-width: 0px;"/>
  </g>
</svg>