<?xml version="1.0" encoding="UTF-8"?>
<svg id="Layer_2" data-name="Layer 2" xmlns="http://www.w3.org/2000/svg" viewBox="0 0 630.61 667.71">
  <g id="Ebene_1" data-name="Ebene 1">
    <path d="m536.39,667.71h37.09V188.44h-37.09v479.27Zm56.38,0h37.84V188.44h-37.84v479.27ZM162.48,358.34v75.67h132.06v-19.29h64.55v-37.84h-64.55v-56.38h-132.06v37.84Zm132.06,112.77h64.55v-37.09h-64.55v37.09Zm-132.06-188.44h-65.29v37.84h65.29v-37.84Zm0-169.89v37.84h132.06v-56.38h64.55v-37.84h-64.55v-19.29h-132.06v75.67ZM294.53,0v37.09h64.55V0h-64.55Zm241.86,282.66v-37.09H162.48v37.09h373.92Zm0-56.38v-37.84H162.48v37.84h373.92ZM0,188.44v94.22h162.48v-94.22H0Zm162.48-37.84h-65.29v37.84h65.29v-37.84Z" style="stroke-width: 0px;"/>
  </g>
</svg>