<?xml version="1.0" encoding="utf-8"?>
<!-- Generator: Adobe Illustrator 27.8.0, SVG Export Plug-In . SVG Version: 6.00 Build 0)  -->
<svg version="1.1" id="Layer_2_00000070817657286466122600000001218944740072307384_"
	 xmlns="http://www.w3.org/2000/svg" xmlns:xlink="http://www.w3.org/1999/xlink" x="0px" y="0px" viewBox="0 0 359.1 471.1"
	 style="enable-background:new 0 0 359.1 471.1;" xml:space="preserve">
<g id="Ebene_1">
	<path d="M162.5,112.8V37.1h132.1v19.3h64.5v37.8h-64.5v56.4H162.5L162.5,112.8L162.5,112.8z M294.5,0h64.5v37.1h-64.5V0z
		 M162.5,188.4H97.2v-37.8h65.3L162.5,188.4L162.5,188.4z M162.5,358.3v-37.8h132.1v56.4h64.5v37.8h-64.5V434H162.5V358.3z
		 M294.5,471.1V434h64.5v37.1H294.5z M0,282.7v-94.2h162.5v94.2H0z M162.5,320.5H97.2v-37.8h65.3L162.5,320.5L162.5,320.5z"/>
</g>
</svg>
